<?xml version="1.0"?>
<svg width="24" height="24" xmlns="http://www.w3.org/2000/svg" xmlns:svg="http://www.w3.org/2000/svg" preserveAspectRatio="xMidYMid meet" version="1.0">
 <g class="layer">
  <title>Layer 1</title>
  <g id="svg_7">
   <path d="m2.74,0.43c-1.24,0.19 -2.26,1.09 -2.63,2.31c-0.12,0.39 -0.12,1.3 0,1.69c0.3,1.02 1.09,1.84 2.09,2.2c0.37,0.13 0.45,0.14 0.99,0.14c0.81,0 1.29,-0.15 1.92,-0.62c0.55,-0.41 1.09,-1.25 1.22,-1.9c0.07,-0.36 0.07,-1.08 0,-1.39c-0.08,-0.37 -0.38,-0.97 -0.66,-1.3c-0.41,-0.5 -1.09,-0.94 -1.68,-1.08c-0.32,-0.08 -0.92,-0.1 -1.24,-0.05zm1.15,0.87c0.67,0.19 1.24,0.71 1.55,1.42c0.16,0.38 0.19,1.14 0.05,1.58c-0.31,1.04 -1.39,1.78 -2.41,1.67c-0.84,-0.09 -1.5,-0.47 -1.9,-1.1c-0.43,-0.67 -0.47,-1.58 -0.12,-2.32c0.5,-1.06 1.66,-1.58 2.84,-1.26z" fill="#252525" id="svg_2"/>
   <path d="m17.05,7.22c-1.17,0.11 -2.3,0.61 -3.1,1.36c-0.19,0.18 -0.37,0.33 -0.38,0.33c-0.01,0 -0.03,-0.15 -0.03,-0.34c0,-0.4 -0.08,-0.6 -0.34,-0.8l-0.18,-0.15l-2.26,0l-2.26,0l-0.19,0.13c-0.37,0.25 -0.34,-0.47 -0.33,8.11l0.01,7.65l0.1,0.15c0.06,0.08 0.19,0.19 0.28,0.23c0.16,0.08 0.34,0.09 2.49,0.1c1.51,0.01 2.37,0 2.49,-0.04c0.2,-0.05 0.44,-0.23 0.53,-0.39c0.04,-0.07 0.06,-1.2 0.08,-4.78c0.02,-4.58 0.03,-4.69 0.12,-4.95c0.51,-1.38 1.89,-1.93 3.21,-1.26c0.33,0.17 0.73,0.54 0.86,0.82c0.23,0.49 0.22,0.4 0.25,5.39l0.03,4.69l0.13,0.17c0.27,0.35 0.17,0.34 2.64,0.34l2.2,0l0.17,-0.11c0.09,-0.06 0.22,-0.19 0.28,-0.28l0.11,-0.17l0.01,-5.39c0.01,-5.59 0,-5.9 -0.18,-6.63c-0.52,-2.09 -2.16,-3.65 -4.25,-4.08c-0.55,-0.11 -1.84,-0.16 -2.5,-0.09zm1.76,0.8c1.15,0.1 2.06,0.51 2.88,1.3c0.71,0.67 1.15,1.48 1.39,2.52c0.08,0.35 0.08,0.71 0.08,5.86l0,5.48l-1.97,0l-1.97,0l-0.02,-4.62c-0.03,-4.54 -0.03,-4.62 -0.13,-4.98c-0.23,-0.82 -0.68,-1.37 -1.44,-1.75c-1.73,-0.89 -3.68,-0.04 -4.32,1.86c-0.08,0.24 -0.09,0.54 -0.11,4.87l-0.02,4.62l-2.19,0.01l-2.19,0.01l0,-7.4l0,-7.4l1.99,0l1.99,0l0,1.27l0,1.28l0.95,-0.97c1.07,-1.09 1.18,-1.18 1.74,-1.47c0.92,-0.47 1.94,-0.62 3.33,-0.5z" fill="#252525" id="svg_3"/>
   <path d="m1.18,7.65c-0.24,0.08 -0.64,0.48 -0.7,0.72c-0.04,0.14 -0.05,2.29 -0.04,7.5l0.01,7.3l0.14,0.21c0.2,0.3 0.49,0.5 0.8,0.56c0.17,0.04 0.82,0.05 1.98,0.04l1.72,-0.01l0.26,-0.15c0.29,-0.16 0.53,-0.45 0.61,-0.71c0.03,-0.12 0.05,-2.54 0.05,-7.33c0,-7.03 0,-7.16 -0.09,-7.41c-0.11,-0.29 -0.36,-0.55 -0.66,-0.68c-0.2,-0.09 -0.3,-0.1 -2.06,-0.09c-1.22,0 -1.91,0.02 -2.01,0.06zm3.87,0.85l0.13,0.11l0.01,7.14c0.01,7.92 0.04,7.3 -0.3,7.4c-0.12,0.04 -0.72,0.05 -1.81,0.04l-1.64,-0.01l-0.11,-0.13l-0.11,-0.13l0,-7.15l0,-7.15l0.12,-0.11l0.11,-0.12l1.73,0l1.73,0l0.13,0.11z" fill="#252525" id="svg_4"/>
   <path d="m2.75,0.9c-1.06,0.16 -1.92,0.93 -2.24,1.97c-0.1,0.33 -0.1,1.11 0,1.44c0.26,0.87 0.93,1.57 1.78,1.87c0.31,0.11 0.39,0.12 0.84,0.12c0.69,0 1.1,-0.13 1.64,-0.53c0.47,-0.35 0.93,-1.07 1.04,-1.62c0.06,-0.31 0.06,-0.92 0,-1.19c-0.07,-0.32 -0.33,-0.82 -0.56,-1.11c-0.35,-0.43 -0.93,-0.8 -1.43,-0.92c-0.27,-0.07 -0.79,-0.09 -1.06,-0.04zm0.98,0.74c0.57,0.16 1.06,0.6 1.32,1.21c0.14,0.33 0.16,0.97 0.04,1.35c-0.27,0.89 -1.18,1.52 -2.06,1.43c-0.71,-0.08 -1.28,-0.4 -1.62,-0.93c-0.36,-0.57 -0.4,-1.35 -0.1,-1.98c0.43,-0.91 1.42,-1.35 2.42,-1.07z" fill="#252525" id="svg_1"/>
   <path d="m1.37,8.25c-0.22,0.07 -0.58,0.45 -0.63,0.67c-0.03,0.13 -0.04,2.13 -0.04,6.99l0.01,6.81l0.13,0.2c0.18,0.28 0.44,0.46 0.72,0.52c0.16,0.03 0.74,0.04 1.79,0.03l1.56,-0.01l0.23,-0.14c0.26,-0.15 0.48,-0.42 0.55,-0.66c0.03,-0.11 0.04,-2.37 0.04,-6.83c0,-6.56 0,-6.67 -0.08,-6.91c-0.1,-0.27 -0.32,-0.51 -0.59,-0.64c-0.18,-0.09 -0.27,-0.09 -1.86,-0.09c-1.1,0 -1.72,0.02 -1.82,0.05zm3.5,0.79l0.12,0.1l0.01,6.65c0.01,7.39 0.03,6.81 -0.28,6.9c-0.11,0.03 -0.65,0.04 -1.63,0.03l-1.48,-0.01l-0.1,-0.12l-0.1,-0.12l0,-6.66l0,-6.66l0.11,-0.1l0.1,-0.11l1.57,0l1.57,0l0.12,0.1z" fill="#252525" id="svg_5"/>
   <path d="m16.88,7.93c-1.13,0.11 -2.22,0.58 -3,1.28c-0.19,0.17 -0.35,0.31 -0.37,0.31c-0.01,0 -0.03,-0.15 -0.03,-0.32c0,-0.38 -0.08,-0.56 -0.33,-0.76l-0.18,-0.14l-2.18,0l-2.18,0l-0.19,0.12c-0.36,0.23 -0.33,-0.45 -0.32,7.66l0.01,7.23l0.1,0.14c0.06,0.08 0.18,0.18 0.27,0.22c0.16,0.08 0.33,0.08 2.4,0.1c1.46,0.01 2.29,0 2.41,-0.04c0.19,-0.05 0.42,-0.22 0.51,-0.37c0.04,-0.07 0.06,-1.14 0.08,-4.52c0.02,-4.33 0.03,-4.43 0.12,-4.68c0.49,-1.31 1.82,-1.82 3.11,-1.19c0.32,0.16 0.7,0.51 0.83,0.77c0.22,0.47 0.22,0.38 0.24,5.1l0.03,4.43l0.13,0.16c0.26,0.33 0.17,0.32 2.55,0.32l2.13,0l0.16,-0.11c0.09,-0.06 0.21,-0.18 0.27,-0.26l0.11,-0.16l0.01,-5.09c0.01,-5.29 0,-5.58 -0.18,-6.27c-0.51,-1.97 -2.09,-3.45 -4.11,-3.85c-0.53,-0.11 -1.78,-0.15 -2.41,-0.09zm1.7,0.75c1.11,0.1 1.99,0.48 2.79,1.23c0.68,0.63 1.11,1.4 1.34,2.38c0.08,0.33 0.08,0.67 0.08,5.54l0,5.18l-1.9,0l-1.9,0l-0.02,-4.36c-0.03,-4.29 -0.03,-4.37 -0.12,-4.7c-0.22,-0.78 -0.66,-1.29 -1.39,-1.66c-1.67,-0.84 -3.56,-0.04 -4.18,1.75c-0.08,0.23 -0.09,0.51 -0.11,4.61l-0.02,4.36l-2.12,0.01l-2.11,0.01l0,-7l0,-7l1.92,0l1.92,0l0,1.21l0,1.21l0.91,-0.91c1.03,-1.03 1.14,-1.12 1.68,-1.39c0.89,-0.44 1.87,-0.59 3.22,-0.47z" fill="#252525" id="svg_6"/>
  </g>
 </g>

</svg>