<?xml version="1.0"?>
<svg width="24" height="24" xmlns="http://www.w3.org/2000/svg" xmlns:svg="http://www.w3.org/2000/svg" preserveAspectRatio="xMidYMid meet" version="1.0">
 <g class="layer">
  <title>Layer 1</title>
  <g fill="#000000" id="svg_1" transform="matrix(0.00494235, 0, 0, -0.00494235, 6.33969, 59.7917)">
   <path d="m65.41,11165.45c-124,-33 -136,-44 -703,-612c-569,-570 -570,-571 -603,-699c-28,-108 -14,-225 41,-336c38,-76 1073,-1113 1154,-1156c120,-64 27,-61 1661,-61c947,0 1506,4 1540,10c183,34 344,195 379,379c6,34 10,417 10,1060c0,860 -2,1015 -15,1064c-45,173 -178,307 -350,352c-87,22 -3030,22 -3114,-1zm3085,-330c15,-11 37,-33 48,-48c21,-27 21,-33 21,-1046c0,-1013 0,-1019 -21,-1046c-11,-15 -33,-37 -48,-48c-27,-21 -31,-21 -1504,-24c-981,-2 -1489,1 -1512,7c-27,8 -151,127 -547,523c-450,451 -512,518 -518,551c-17,92 -36,69 513,621c279,279 521,514 537,522c25,11 279,13 1517,11c1484,-2 1487,-2 1514,-23z" id="svg_2"/>
   <path d="m759.41,10527.45c-41,-18 -83,-69 -91,-111c-16,-86 -14,-89 289,-392l282,-283l-282,-282c-304,-305 -305,-307 -288,-395c9,-49 69,-109 118,-118c88,-17 90,-16 395,288l282,282l283,-282c304,-304 306,-305 394,-288c49,9 109,69 118,118c17,88 16,90 -288,395l-282,282l282,283c304,304 305,306 288,394c-9,49 -69,109 -118,118c-88,17 -90,16 -395,-288l-282,-282l-278,277c-152,152 -290,282 -305,288c-38,14 -85,12 -122,-4z" id="svg_3"/>
  </g>
 </g>

</svg>