<?xml version="1.0"?>
<svg width="24" height="24" xmlns="http://www.w3.org/2000/svg" xmlns:svg="http://www.w3.org/2000/svg" preserveAspectRatio="xMidYMid meet" version="1.0">
 <g class="layer">
  <title>Layer 1</title>
  <g fill="#252525" id="svg_1" transform="matrix(0.00420676, 0, 0, -0.00420676, -1.61574, 24.4228)">
   <path d="m2796.13,5488.03c-1545,-271 -2484,-1832 -1995,-3320c276,-840 961,-1476 1816,-1688c470,-116 983,-96 1444,59c608,203 1131,648 1434,1220c134,255 231,555 270,842c23,167 30,298 17,346c-13,48 -60,106 -104,129c-40,20 -126,19 -168,-3c-19,-9 -90,-74 -159,-143c-318,-322 -694,-481 -1138,-481c-430,0 -825,169 -1127,481c-306,316 -458,713 -442,1149c16,405 155,735 439,1037c84,90 102,118 112,175c14,75 -41,175 -110,204c-45,19 -157,16 -289,-7zm-323,-541c-118,-212 -200,-500 -222,-783c-32,-406 72,-824 290,-1177c155,-249 389,-483 639,-638c572,-355 1273,-396 1880,-109c68,32 152,77 187,99c35,22 66,40 68,40c13,0 -81,-248 -138,-365c-289,-600 -831,-1026 -1481,-1165c-167,-36 -267,-45 -480,-44c-173,0 -233,4 -340,23c-452,80 -849,285 -1168,604c-322,322 -523,702 -608,1152c-27,139 -37,477 -20,622c83,695 458,1272 1059,1631c89,53 322,160 350,162c10,0 4,-17 -16,-52z" id="svg_2"/>
  </g>
 </g>

</svg>