<?xml version="1.0"?>
<svg width="24" height="24" xmlns="http://www.w3.org/2000/svg" xmlns:svg="http://www.w3.org/2000/svg" preserveAspectRatio="xMidYMid meet" version="1.0">
 <g class="layer">
  <title>Layer 1</title>
  <g fill="#ffffff" id="svg_1" transform="matrix(0.00468149, 0, 0, -0.00468149, -1.7698, 22.3943)">
   <path d="m2759.49,4764.23c-41,-18 -83,-69 -90,-109c-3,-18 -5,-148 -3,-289c3,-241 4,-258 24,-284c39,-53 71,-69 134,-69c63,0 95,16 134,69c20,26 21,40 21,311c0,271 -1,285 -21,311c-11,15 -32,37 -46,47c-33,25 -113,32 -153,13z" id="svg_2"/>
   <path d="m3989.49,4507.23c-17,-4 -43,-21 -57,-36c-28,-30 -228,-369 -261,-442c-68,-155 126,-294 248,-178c36,34 260,416 276,469c10,35 -3,96 -28,134c-18,28 -90,64 -124,63c-13,0 -38,-5 -54,-10z" id="svg_3"/>
   <path d="m1579.49,4384.23c-37,-16 -83,-68 -91,-102c-16,-61 3,-107 125,-319c66,-115 134,-222 150,-237c104,-94 277,1 258,142c-3,23 -53,121 -133,259c-139,240 -157,260 -237,267c-23,3 -56,-2 -72,-10z" id="svg_4"/>
   <path d="m4874.49,3654.23c-151,-80 -399,-231 -422,-256c-94,-103 1,-276 142,-257c23,3 121,53 259,133c250,145 266,160 266,251c0,123 -129,191 -245,129z" id="svg_5"/>
   <path d="m2799.49,3632.23c-330,-36 -658,-200 -888,-444c-180,-192 -301,-423 -359,-689c-30,-138 -30,-424 0,-562c124,-568 547,-989 1115,-1111c146,-31 408,-31 553,0c572,123 993,544 1116,1115c29,136 31,398 4,532c-89,450 -368,817 -771,1018c-191,94 -363,136 -585,142c-80,2 -163,1 -185,-1zm406,-347c131,-34 235,-79 338,-147c448,-294 619,-855 412,-1351c-46,-111 -143,-254 -235,-345c-493,-493 -1312,-408 -1696,177c-167,254 -221,581 -144,875c85,327 337,616 648,740c161,65 271,84 451,79c96,-3 155,-10 226,-28z" id="svg_6"/>
   <path d="m769.49,3469.23c-49,-12 -83,-40 -106,-87c-29,-61 -20,-123 24,-170c31,-32 356,-227 446,-267c149,-66 290,118 185,242c-14,17 -89,67 -167,112c-320,185 -320,185 -382,170z" id="svg_7"/>
   <path d="m4829.49,2484.23c-67,-29 -105,-106 -91,-181c9,-47 59,-102 104,-116c24,-6 132,-9 299,-7c246,3 263,4 289,24c53,39 69,71 69,134c0,63 -16,95 -69,134c-26,20 -42,21 -299,23c-211,2 -279,0 -302,-11z" id="svg_8"/>
   <path d="m479.49,2244.23c-67,-29 -105,-106 -91,-181c9,-47 59,-102 104,-116c24,-6 132,-9 299,-7c246,3 263,4 289,24c53,39 69,71 69,134c0,63 -16,95 -69,134c-26,20 -42,21 -299,23c-211,2 -279,0 -302,-11z" id="svg_9"/>
   <path d="m4638.49,1497.23c-18,-5 -46,-25 -62,-44c-55,-62 -55,-152 1,-210c35,-36 416,-260 469,-276c103,-30 210,68 193,177c-10,68 -47,100 -255,220c-261,151 -271,155 -346,133z" id="svg_10"/>
   <path d="m1223.49,1269.23c-30,-16 -135,-76 -234,-133c-162,-95 -182,-109 -203,-149c-41,-77 -19,-154 59,-207c28,-20 43,-23 89,-19c48,3 80,18 260,122c113,64 219,132 237,150c95,99 19,265 -120,265c-19,0 -58,-13 -88,-29z" id="svg_11"/>
   <path d="m3944.49,726.23c-56,-39 -75,-73 -75,-136c0,-55 5,-65 130,-280c146,-251 161,-267 252,-267c58,0 93,20 131,76c20,28 23,43 19,89c-3,48 -18,80 -125,263c-66,115 -129,218 -139,229c-45,51 -138,63 -193,26z" id="svg_12"/>
   <path d="m2009.49,614.23c-16,-7 -40,-24 -51,-37c-30,-34 -253,-422 -264,-460c-42,-145 146,-259 256,-156c32,31 227,356 267,446c58,132 -76,266 -208,207z" id="svg_13"/>
   <path d="m2999.49,414.23c-41,-18 -83,-69 -90,-109c-3,-18 -5,-148 -3,-289c3,-241 4,-258 24,-284c39,-53 71,-69 134,-69c63,0 95,16 134,69c20,26 21,40 21,311c0,271 -1,285 -21,311c-11,15 -32,37 -46,47c-33,25 -113,32 -153,13z" id="svg_14"/>
  </g>
 </g>

</svg>