<?xml version="1.0"?>
<svg width="24" height="24" xmlns="http://www.w3.org/2000/svg" xmlns:svg="http://www.w3.org/2000/svg" preserveAspectRatio="xMidYMid meet" version="1.0">
 <g class="layer">
  <title>Layer 1</title>
  <g fill="#000000" id="svg_1" transform="matrix(0.00501991, 0, 0, -0.00501991, -12.9576, 106.605)">
   <path d="m5316.48,21178.95c-15,-8 -396,-279 -847,-601l-821,-586l-313,-1c-352,0 -398,-7 -502,-69c-107,-65 -193,-188 -216,-309c-13,-72 -13,-1490 0,-1562c24,-126 122,-259 236,-321c95,-51 150,-58 487,-58l308,0l837,-598c825,-589 837,-597 884,-597c40,0 53,5 80,33l33,32l0,2290l0,2290l-31,31c-37,36 -95,48 -135,26zm-69,-2348c0,-1100 -4,-1999 -8,-1997c-5,2 -329,232 -720,512l-712,508l0,978l0,978l713,510c391,281 715,511 720,511c4,1 7,-899 7,-2000zm-1680,1l0,-920l-267,0c-261,0 -269,1 -318,24c-60,28 -87,56 -114,116c-20,44 -21,62 -21,780c0,718 1,736 21,780c27,60 54,88 114,116c49,23 57,24 318,24l267,0l0,-920z" fill="#ffffff" id="svg_2"/>
   <path d="m6471.48,20357.95c-28,-28 -34,-41 -34,-78c0,-51 10,-68 91,-145c349,-332 559,-822 559,-1303c0,-484 -214,-980 -563,-1307c-77,-72 -87,-88 -87,-143c0,-34 6,-48 34,-76c29,-29 41,-34 79,-34c40,0 53,6 104,48c148,124 326,352 438,564c372,705 294,1573 -198,2203c-65,84 -198,225 -250,266c-40,32 -57,39 -94,39c-38,0 -50,-5 -79,-34z" fill="#ffffff" id="svg_3"/>
   <path d="m6151.48,19952.95c-38,-17 -74,-70 -74,-109c0,-43 14,-65 95,-147c179,-183 302,-430 340,-682c58,-384 -72,-779 -347,-1054c-36,-36 -70,-75 -77,-86c-48,-90 55,-202 150,-163c16,7 66,49 110,94c200,203 337,469 395,761c25,125 25,405 0,530c-53,268 -173,514 -348,712c-118,135 -180,171 -244,144z" fill="#ffffff" id="svg_4"/>
   <path d="m5810.48,19524.95c-32,-6 -79,-56 -86,-92c-9,-43 6,-75 63,-142c70,-79 116,-160 147,-254c23,-69 27,-97 27,-205c0,-108 -4,-136 -27,-205c-31,-94 -77,-175 -147,-254c-27,-32 -54,-70 -59,-84c-32,-83 63,-178 147,-146c69,26 200,193 257,329c139,330 73,722 -165,974c-49,52 -104,89 -127,85c-4,-1 -18,-4 -30,-6z" fill="#ffffff" id="svg_5"/>
  </g>
 </g>

</svg>